<svg width="64" height="64" viewBox="0 0 64 64" fill="none" xmlns="http://www.w3.org/2000/svg">
<path d="M31.9996 42.2727C30.1209 42.2727 28.4012 41.8106 26.8406 40.8864C25.2799 39.9621 24.0375 38.7197 23.1133 37.1591C22.189 35.5985 21.7269 33.8788 21.7269 32C21.7269 30.1061 22.189 28.3864 23.1133 26.8409C24.0375 25.2803 25.2799 24.0379 26.8406 23.1136C28.4012 22.1894 30.1209 21.7273 31.9996 21.7273C33.8936 21.7273 35.6133 22.1894 37.1587 23.1136C38.7193 24.0379 39.9618 25.2803 40.886 26.8409C41.8103 28.3864 42.2724 30.1061 42.2724 32C42.2724 33.8788 41.8103 35.5985 40.886 37.1591C39.9618 38.7197 38.7193 39.9621 37.1587 40.8864C35.6133 41.8106 33.8936 42.2727 31.9996 42.2727ZM31.9996 37.7273C33.0603 37.7273 34.0224 37.4697 34.886 36.9546C35.7496 36.4394 36.439 35.75 36.9542 34.8864C37.4693 34.0076 37.7269 33.0455 37.7269 32C37.7269 30.9394 37.4693 29.9773 36.9542 29.1136C36.439 28.25 35.7496 27.5606 34.886 27.0455C34.0224 26.5303 33.0603 26.2727 31.9996 26.2727C30.9542 26.2727 29.9921 26.5303 29.1133 27.0455C28.2496 27.5606 27.5603 28.25 27.0451 29.1136C26.5299 29.9773 26.2724 30.9394 26.2724 32C26.2724 33.0455 26.5299 34.0076 27.0451 34.8864C27.5603 35.75 28.2496 36.4394 29.1133 36.9546C29.9921 37.4697 30.9542 37.7273 31.9996 37.7273ZM29.8178 17.1818V3.36365H34.1815V17.1818H29.8178ZM43.9996 23.0909L40.9087 20L50.7269 10.1818L53.8178 13.2727L43.9996 23.0909ZM46.8178 34.1818V29.8182H60.636V34.1818H46.8178ZM50.7269 53.8182L40.9087 44L43.9996 40.9091L53.8178 50.7273L50.7269 53.8182ZM29.8178 60.6364V46.8182H34.1815V60.6364H29.8178ZM13.2724 53.8182L10.1815 50.7273L19.9996 40.9091L23.0906 44L13.2724 53.8182ZM3.36328 34.1818V29.8182H17.1815V34.1818H3.36328ZM19.9996 23.0909L10.1815 13.2727L13.2724 10.1818L23.0906 20L19.9996 23.0909Z" fill="#1A1B1F"/>
</svg>
