<svg width="64" height="64" viewBox="0 0 64 64" fill="none" xmlns="http://www.w3.org/2000/svg">
<path d="M0 28.3521V32C1.536 32 2.944 32.576 4.736 33.536C6.144 34.304 8.32 35.6481 10.688 35.6481C12.992 35.6481 14.656 34.688 16.832 33.536C17.664 33.024 19.072 32 21.312 32C23.552 32 25.024 33.024 25.856 33.536C27.968 34.688 29.632 35.6481 32 35.6481C34.368 35.6481 36.48 34.368 37.952 33.536C39.744 32.576 41.152 32 42.624 32C44.096 32 45.504 32.576 47.296 33.536C48.768 34.304 50.88 35.6481 53.248 35.6481C55.616 35.6481 57.28 34.688 59.392 33.536C60.224 33.024 61.76 32 64 32V28.3521C61.248 28.3521 59.584 29.6321 58.048 30.4641C56.256 31.4241 54.784 32 53.248 32C51.712 32 49.472 30.9761 48.576 30.4641C46.976 29.5041 44.928 28.3521 42.624 28.3521C40.32 28.3521 38.272 29.5041 36.672 30.4641C35.776 30.9761 33.536 32 32 32C30.464 32 28.992 31.4241 27.2 30.4641C25.664 29.6321 24.128 28.3521 21.312 28.3521C18.56 28.3521 16.96 29.6321 15.488 30.4641C13.696 31.4241 12.224 32 10.688 32C9.088 32 6.912 30.9761 6.016 30.4641C4.352 29.5041 2.304 28.3521 0 28.3521Z" fill="#1A1B1F"/>
</svg>
